<?xml version="1.0" encoding="utf-8"?>
<!-- Generator: Adobe Illustrator 23.0.2, SVG Export Plug-In . SVG Version: 6.00 Build 0)  -->
<svg version="1.1" id="Layer_1" xmlns="http://www.w3.org/2000/svg" xmlns:xlink="http://www.w3.org/1999/xlink" x="0px" y="0px"
	 viewBox="0 0 612 792" style="enable-background:new 0 0 612 792;" xml:space="preserve">
<style type="text/css">
	.st0{fill:#FEFEFE;}
	.st1{fill:#FCFCFC;}
	.st2{fill:#010101;}
	.st3{fill:#F8F8F8;}
	.st4{fill:#F6F6F6;}
	.st5{fill:#F9F9F9;}
	.st6{fill:#FAFAFA;}
	.st7{fill:#0B0B0B;}
	.st8{fill:#0F0F0F;}
	.st9{fill:#F7F7F7;}
	.st10{fill:#070707;}
	.st11{fill:#EFEFEF;}
	.st12{fill:#060606;}
	.st13{fill:#F5F5F5;}
	.st14{fill:#F4F4F4;}
	.st15{fill:#0C0C0C;}
	.st16{fill:#F3F3F3;}
	.st17{fill:#F1F1F1;}
	.st18{fill:#0A0A0A;}
	.st19{fill:#F2F2F2;}
	.st20{fill:#080808;}
	.st21{fill:#EDEDED;}
	.st22{fill:#090909;}
	.st23{fill:#F0F0F0;}
	.st24{fill:#E6E6E6;}
	.st25{fill:#EEEEEE;}
	.st26{fill:#0E0E0E;}
	.st27{fill:#121212;}
	.st28{fill:#101010;}
	.st29{fill:#191919;}
	.st30{fill:#171717;}
	.st31{fill:#111111;}
	.st32{fill:#0D0D0D;}
	.st33{fill:#1B1B1B;}
</style>
<g>
	<ellipse class="st0" cx="307" cy="397" rx="524.67" ry="678.82"/>
	<path d="M315,722c-0.81-0.43-0.91,1.26-2.33,0.37c-3.79-2.35-7.78-4.4-11.59-6.75c-2.88-1.77-5.85-3.42-8.9-4.89
		c-3.61-1.75-6.62-4.56-10.53-5.76c-1.07-0.33-1.41-1.8-2.66-1.98c-0.1-2.01-1.77-1.68-3-2c-0.81,0.01-1.45-0.15-2.23-0.64
		c-7.32-4.63-15.32-8.12-22.3-13.33c-0.32-0.24-0.97-0.03-1.47-0.03c-1.28-0.43-2.58-0.82-2.5-2.59c0.06-1.33,0.01-2.67,0.01-4
		c0-86.66,0-173.31,0-259.97c0-4.15-0.03-8.3-1.1-12.33c-1.05-0.03-1.66,0.6-2.41,0.89c-0.14,1.06-1.49,1.73-1,3
		c-0.72,0.87,0.2,2.29-1,3c-1.5,0.09-0.85,1.24-1,2c-0.52,1.41-0.55,3.06-2,4c0.17,2-1.5,3.27-2,5c-0.7,0.88-0.04,2.21-1,3
		c-1.86,0.74-2.02,2.77-2.5,4.16c-2.76,8.02-7.48,15.23-9.63,23.48c-2.74,3.46-3.19,8.01-5.57,11.69c-1.14,1.76-1.01,4.61-2.43,5.87
		c-1.93,1.71-2.41,3.63-2.87,5.81c-1.73,1.06-2.62,0.08-2.59-1.45c0.04-2.08-0.8-4.33,0.82-6.22c-2.64,0.53,1.26,5.4-3.23,4.67
		c0-0.67,0-1.33,0-2c-0.57-1.38-0.03-3.32-2-4c-2.56-7.05-5.85-13.81-8.07-21.01c-1.22-3.92-3.23-7.6-4.82-11.41
		c-0.77-1.83-1.41-3.72-2.1-5.59c-2.11-1.69-2.97-3.95-3-6.59c1.08-2.95-1.91-4.18-2.69-6.36c-2.66-3.51-3.63-7.74-5.02-11.52
		c0.6,5.02,0.18,10.28,0.19,15.53c0.02,39.23-0.01,78.47,0.04,117.7c0.01,4.5-0.58,8.87-1.52,13.24c0,0.33,0,0.67,0,1
		c0.11,1.89-0.88,1.57-2,1c-1.29-1-2.49-2.18-3.9-2.97c-4.66-2.59-9.41-5.02-14.1-7.55c-2.69-1.45-5.33-2.99-7.99-4.48
		c-0.73-3.24-2.49-4.93-6-4c-0.33,0-0.67,0-1,0c-1.16-1.02-2-2.66-4-2c-1.79,0.42-2.63-2.02-3.52-1.83
		c-2.2,0.45-2.09-1.92-3.48-2.17c-0.67-2.09-1.35-4-4-4.52c-2.27-0.45-2.94-2.5-3.22-4.57c-0.29-2.15-0.18-4.32-0.18-6.48
		c0-61.39-0.01-122.78,0.01-184.17c0-4.31-0.23-8.66,1.16-12.85c0.35-0.52,0.76-0.99,1.23-1.41c0.17,0,0.36,0.06,0.49-0.01
		c3.55-1.87,7.19-3.61,10.62-5.68c3.06-1.85,5.99-3.9,9.29-5.32c1.86-0.8,3.47-2.12,5.14-3.21c3.91-2.57,8.04-4.71,12.11-6.98
		c3.53-1.97,6.96-4.15,10.34-6.36c0.81-0.53,1.55-0.31,2.53-0.49c2.07,7.54,5.04,14.8,7.67,22.16c2.38,6.65,4.56,13.4,7.28,19.94
		c1.77,4.26,2.99,8.75,4.53,13.1c1.75,4.93,3.61,9.82,5.38,14.75c1.1,3.04,2.25,6.07,3.15,9.18c1.07,3.72,3.34,6.98,3.87,10.95
		c2.3-7.78,4.52-15.49,6.78-23.18c1.78-6.05,3.87-12.11,5.36-18.19c1.7-6.95,4.36-13.62,5.64-20.72c0.66-3.68,2.53-7.27,3.37-11.04
		c1.56-6.98,4.27-13.64,5.49-20.71c0.39-2.27,1.25-4.56,2.13-6.59c1.26-2.92,1.41-6.03,2.46-8.96c0.97-2.72,1.82-5.61,2.56-8.47
		c0.8-3.09,1.45-6.33,2.8-9.3c0.41-0.91,0.93-1.68,2-1.87c0.33-0.35,0.73-0.56,1.2-0.63c1.75,0,3.4,0.77,5.75,0.61
		c-0.93-0.93-2.14-1.34-2.25-2.49c0.03-0.85,0.82-1.04,1.3-1.49c1.61,0.37,2.79-0.76,3.87-1.48c5.45-3.63,11.35-6.47,16.89-9.9
		c6.48-4.02,13.58-6.96,19.78-11.49c1.11-0.81,2.67-1.39,4.35-2.18c0,145.01,0,289.88,0,434.54c3.88,3.38,8.76,4,12.75,6.41
		c0.82,0.49,2.35,0.02,3.68-0.52c2.37-0.95,4.13-2.77,6.44-3.77c0.77-0.33,1.43-0.63,2.25-0.62c0.91,0.32,1.83,0.61,2.64,1.14
		c0.57,0.35,0.56-0.76,0.27-0.16c-0.07,0.14-0.56-0.08-0.85-0.27c-0.61-0.41-1.58-0.59-1.07-1.7c1.86-1.1,3.55-2.38,5.62-3.23
		c3.83-1.58,7.45-3.83,10.84-6.08c3.52-2.33,7.49-3.73,10.92-6.28c2.63-1.96,5.92-3.24,8.76-5.09c0.66-0.43,1.26-0.18,1.87-0.31
		c1.97-0.15,3.09-1.43,4-3c7.32-4,14.66-7.95,21.94-12.01c8.37-4.67,16.73-9.35,25.05-14.09c6.05-3.45,12.34-6.52,18.12-10.47
		c1.14-0.78,2.81-0.33,3.89-1.43c2.13-0.23,4.03-0.83,5-3c0.09-1.5,1.24-0.85,2-1c1.4-0.07,2.55-0.5,3-2
		c1.86-1.1,3.65-2.28,5.61-3.26c4.29-2.14,8.21-5,12.47-7.2c1.87-0.97,3.54-2.66,5.91-2.54c3.91-1.04,7.6-2.44,10-6
		c1.58-1.38,3.37-2.34,5.36-3.05c1.27-0.45,1.78-2.46,3.64-1.95c2.61,0.15,1.47,1.79,0.69,2.48c-1.16,1.02-0.32,1.07,0.35,1.41
		c1.82,1.63,2.56,0.1,3.5-1.22c0.4-0.36-0.85-0.2-0.24,0.07c-0.81,1.43-1.7,2.59-3.42,1.05c0.37-1.6,0.43-3.27,1.12-4.79
		c-0.03-0.69,0.31-1.03,1-1c1.22-2.51,3.74-3.05,6-4c2.2,0.16,3.98-1.21,5.54-2.23c4.71-3.05,9.55-5.84,14.57-8.31
		c2.23-1.1,3.83-3.33,6.7-3.54c0-80.21,0-160.38,0-240.82c-2.25-1.3-4.66-2.73-7.1-4.1c-6.89-3.85-13.8-7.67-20.69-11.52
		c-0.07-0.04-0.01-0.32-0.01-0.48c0.2-2.27,2.05-1.54,2.78-1.04c1.75,1.21,3.43,0.17,4.78,0.4c-2.98,0.3-6.22-1.4-9.55-0.36
		c-7.75-3.47-14.76-8.3-22.3-12.18c-4.63-2.38-9.33-4.86-13.7-7.82c-0.41-2.23-2.53-2.18-4-3c-2.37,0.13-4.03-1.57-5.91-2.53
		c-4.4-2.26-8.52-5.03-12.85-7.44c-3.78-2.11-7.62-4.1-11.23-6.5c-2.19-1.45-4.63-2.51-6.93-3.72c-4.34-2.29-8.1-5.76-13.08-6.8
		c-1.47-2.7-0.44-5.54-0.49-8.32c-0.29-16.31,0.6-32.63-0.48-48.94c-0.07-1.05,0.27-1.97,0.97-2.75c1.86,1.1,3.72,2.22,5.61,3.28
		c4.33,2.43,8.61,5.02,12.92,7.45c3.47,1.96,6.97,3.98,10.49,5.89c7.21,3.92,14.65,7.47,21.39,12.22c1.36,0.96,3.05,1.44,4.59,2.15
		c0.66,2.95,4.85,7.45,8.52,9.14c0.5-1.72-2.54-2.29-1.35-4.16c0.06-0.1,0.25-0.16,0.37-0.15c0.16,0.01,0.31,0.11,0.46,0.17
		c0.81-0.01,1.46,0.14,2.24,0.65c5.59,3.66,11.51,6.82,17.32,10.08c5.08,2.85,10.14,5.88,15.49,8.34c3.79,1.74,7.25,4.2,10.87,6.33
		c0.66,0.39,1.38,0.7,2.05,1.07c4.9,2.69,9.7,5.6,14.58,8.28c4.45,2.44,8.76,5.24,13.45,7.25c0.29,1.66-0.46,2.72-1.92,3.46
		c1.92,0.5,2.92-2.27,4.92-1.46c8.03,4.33,16.13,8.55,24.06,13.06c2.56,1.46,5.01,3.11,7.94,4.32c0,99.48,0,199.05,0,298.62
		c-0.29,0.37-0.4,0.94-1,1c-2.81,0-4.95,1.84-7.1,3.13c-2.91,1.76-5.92,3.27-8.9,4.87c-0.47,0.86-0.81,1.85-2,2
		c-2.57,0.34-4.54,1.9-6.7,3.14c-1.99,1.15-3.79,2.82-6.3,2.86c-0.72-0.22-0.55-1.49-0.66-1.35c-2.11,2.83-5.49,1.43-8.33,2.79
		c-0.19,1.33,0.93,3.34-1.01,4.56c-3.49,2.02-6.75,4.38-10.47,6.07c-3.37,1.54-6.49,3.64-9.66,5.61c-0.67,0.42-1.26,0.18-1.88,0.31
		c-0.83,0.04-1.6,0.38-2.44,0.4c-6.02,0.14-6.73,0.7-8.56,6.6c-6.79,3.67-13.74,7.06-20.31,11.07c-7.4,4.53-14.95,8.77-22.56,12.94
		c-4.34,2.38-8.66,4.79-12.89,7.35c-0.78,0.47-1.43,0.65-2.24,0.64c-2.48,1.08-5.28,1.19-7.62,2.85c-1.07,0.76-0.97,1.46-0.93,2.39
		c-1.02,2.42-2.95,3.5-5.45,3.76c-1.3-0.52-2.17,0.56-3.04,1.06c-8.34,4.73-16.58,9.62-25.11,14.01c-2.6,1.34-4.8,3.46-7.85,3.94
		c-2.12-0.05-3.74,0.57-4,3c-7,3.29-13.44,7.6-20.3,11.18c-5.19,2.7-10.28,5.76-15.32,8.83c-5.57,3.39-11.3,6.51-16.95,9.75
		c-4.38,2.51-8.74,5.24-13.43,7.24C324.3,719.57,319.48,720.49,315,722z"/>
	<path d="M108,299c-2.21,1.1-4.42,2.2-6.84,3.4c0,80.22,0,160.66,0,241.25c11.82,6.71,23.83,13.53,35.84,20.35
		c0.96,2.34,4.19,3.98,1.57,7.12c3.22,0.52,2.89-2.39,4.43-3.12c1.3-0.52,2.25,0.52,3.02,1.07c3.43,2.45,7.33,3.95,10.98,5.93
		c2.58,0.9,5.55,1.12,7,4c-0.11,1.35,1.1,0.84,1.7,1.18c6.03,3.39,12.1,6.71,18.07,10.19c0.78,0.45,1.42,0.64,2.23,0.63
		c3.14,0.9,6.07,2.15,8,5c0.69-0.03,1.03,0.31,1,1c0.62,4.32,4.64,2.72,7,4c0.67,0.33,1.33,0.67,2,1c1.13-0.59,1.55,0.24,2,1
		c5.24,2.05,9.51,5.83,15,8.48c0,1.07,0,2.52,0,3.97c0,16.64-0.01,33.29,0.03,49.93c0,1.39-0.66,3.03,0.95,4.1
		c-0.78,0.96-1.95,0.76-2.62,0.29c-4.85-3.41-10.23-5.86-15.36-8.77c-1.84-4.49-5.33-6.23-10-6c-0.78-0.01-1.46,0-2.18-0.61
		c-2.56-2.17-5.56-3.56-8.82-4.39c-1.18-0.15-1.53-1.14-2-2c-2.95-1.75-6.43-2.56-9-5c0.29-4.26-3.01-2.55-5-3
		c-0.17,0-0.37,0.06-0.49-0.01c-3.67-1.98-7.35-3.94-10.97-6.01c-0.68-0.39-1.37-0.73-2.04-1.09c-7.89-4.25-15.61-8.79-23.56-12.94
		c-5.9-3.08-11.61-6.51-17.34-9.9c-3.47-2.05-7.15-3.7-10.5-5.99c-3.31-2.26-7.29-3.32-10.58-5.83c-1.42-1.09-3.31-2.4-5.51-2.24
		c-2.54-0.53-4.51-1.9-6-4c-1.27,0.49-1.94-0.86-3-1c-1.46,0.02-2.36-0.8-3-2c0.11-0.63-0.31-0.79-0.79-1.01
		c-8.72-4.02-16.71-9.42-25.34-13.63c-0.28-0.14-0.48-0.46-0.79-0.78c0-99.66,0-199.41,0-299.19c0.68-0.37,1.07-1.05,1.87-1.45
		c5.12-2.55,10.19-5.19,15.18-7.98c2.05-1.14,3.49-3.25,5.86-3.96c1.03-0.63,1.9-1.49,3-2c3-0.4,5.46-2.13,7.95-3.57
		c3.74-2.17,7.47-4.35,11.25-6.45c2.56-1.42,4.98-3.08,7.8-3.98c1.23-0.32,2.9,0.01,3-2c3.33-2,6.61-4.09,10-5.98
		c7.29-4.06,14.72-7.88,21.95-12.06c5.63-3.26,11.2-6.6,17.04-9.47c0.07-0.03,0.01-0.32,0.01-0.48c3.96-3.91,8.62-6.59,14-8
		c0.5,0,1.16,0.21,1.47-0.03c4.26-3.19,8.99-5.55,13.68-7.99c2.6-1.35,4.99-3.12,7.84-3.98c2.57-0.52,5.14-1.17,7.68,0.73
		c0.43-2.66,1.4-4.68,2.32-6.73c2.25-1.33,4.49-2.69,6.76-3.99c6-3.44,12.06-6.77,17.97-10.34c1.39-0.84,3.14-0.4,4.27-1.67
		c1.24-0.55,2.12,0.09,2.91,0.87c0.22,0.23,0.3,0.49,0.24,0.74c0.09-0.13,0.03-0.35-0.2-0.71c-0.35-0.99-0.27-1.95,0.05-2.9
		c3.29-2,6.54-4.08,9.89-5.98c6-3.4,12.07-6.69,18.11-10.02c0.41-1.54,1.93-1.44,3-2c0.33,0,0.75,0.13,0.98-0.02
		c2.92-2.02,6.46-3.09,9.23-5.13c2.92-2.14,6.68-2.83,9.1-5.66c7.63-3.64,14.81-8.11,22.22-12.16c0.38-0.21,0.98-0.03,1.47-0.03
		c4.37,1.68,8.87,1.84,13.32,0.65c2.03-0.54,3.83-0.46,5.68,0.35c3.01,0.41,5.55,2.08,7.96,3.62c3.16,2.01,6.65,3.41,9.69,5.56
		c5.61,3.96,11.76,7.02,17.69,10.39c5.1,2.9,9.92,6.35,15.36,8.66c1.63,0.69,3.06,1.74,4.29,3.4c0,77.96,0,156.16,0,234.37
		c0.3,0.16,0.59,0.43,0.89,0.43c22.3,0.12,44.59,0.14,67.29-0.01c0.44-4.67,0.3-9.11,0.29-13.5c-0.02-30.33,0.26-60.66-0.13-90.98
		c-0.02-1.33-0.36-2.79,1.66-2.94c3.48,1.98,7.12,3.73,10.39,6.01c3.2,2.22,6.8,3.71,10.12,5.66c3.79,2.22,7.81,4.29,11.64,6.49
		c6.16,3.53,12.61,6.61,18.36,10.84c0.11,0.08,0.32,0.01,0.49,0.01c-0.8,3.17,0.52,6.21,0.52,9.35
		c-0.04,65.08-0.03,130.17-0.05,195.25c0,1.47,0.38,3-0.47,4.39c-6.69,4.16-13.72,7.73-20.49,11.75c-3.54,2.1-7.06,4.45-10.89,6.02
		c-2.06,0.85-3.76,2.13-5.62,3.23c-2.55,3.31-6.07,5-10,6c-0.5,0-1.12-0.2-1.47,0.03c-6.62,4.24-13.66,7.72-20.48,11.59
		c-2.3,1.31-4.53,2.61-7.05,3.38c-1,0.59-1.77-0.39-2.62-0.34c-0.51-0.55,0.05,1,0.09,0.33c1.57,0.3,1.01,1.16,0.53,2
		c-7.05,3.88-14.11,7.74-21.13,11.69c-0.68,0.38-1.26,0.18-1.87,0.31c-1.31-0.02-2.34-0.89-3.8-1.18c0.44,1.24,2.48,1.52,1.8,3.18
		c-4.05,2.22-8.13,4.4-12.13,6.69c-0.67,0.39-1.26,0.17-1.87,0.31c-0.97-0.83-1.8-1.89-3.27-1.95c-0.8,1.5,1.25,1.8,1.27,2.95
		c-0.32,1.15-0.98,1.9-2.26,2.02c-0.49,0.05-0.86,0.38-0.74,0.98c-1.17,1-2.58,1.5-4,2c-0.5,0-1.17-0.21-1.47,0.03
		c-3.79,3.04-8.28,4.88-12.4,7.36c-7.16,4.32-14.57,8.19-21.76,12.45c-3.67,2.17-7.53,4.18-11.37,6.15
		c-1.87-1.86-1.59-4.29-1.59-6.57c-0.06-14.94-0.05-29.88-0.01-44.82c0.01-2.31-0.11-4.69,1.61-6.61
		c6.72-4.21,13.66-8.12,20.63-11.78c6.44-3.38,12.5-7.42,19.07-10.59c6-2.89,11.49-6.83,17.33-10.09c3.25-1.82,6.42-3.79,9.73-5.46
		c3.9-1.97,7.56-4.29,11.29-6.54c3.57-2.15,7.42-3.84,10.99-6.03c7.02-4.3,14.64-7.56,21.35-12.41c3.88-0.9,6.57-4.11,10.45-5.35
		c0-16.4,0-32.85,0-49.64c-40.12,0-80.35,0-120.72,0c0-86.1,0-171.87,0-257.49c-2.7-1.65-5.34-3.04-7.7-4.8
		c-1.42-1.06-3.21-1.27-4.52-2.42c-1.86-1.63-3.19,1.16-4.91,0.59c-2.32-0.09-4.51,0.04-5,3c-3.34,2-6.62,4.09-10.02,5.98
		c-7.31,4.06-14.73,7.92-21.99,12.05c-7.68,4.37-15.32,8.81-23.08,13.06c-8.3,4.54-16.54,9.2-24.7,13.98
		c-6.17,3.61-12.48,6.98-18.65,10.59c-3.28,1.92-6.71,3.82-10.14,5.59c-4.41,2.28-8.61,5.06-12.93,7.5
		c-4.3,2.43-8.62,4.87-12.99,7.2c-3.98,2.12-7.86,4.39-11.76,6.64c-3.47,2-7.1,3.76-10.59,5.76c-3.09,1.78-6.23,3.48-9.28,5.34
		c-0.67,0.41-1.26,0.18-1.88,0.31c-3.1,0.97-6.52,1.43-8,5c-0.33,0-0.67,0-1,0c-2.81,0.62-5.15,2.69-7.01,2.47
		c-0.04,0.01,1.23-0.46,1.01,1.53c-0.78,0.01-1.58-0.17-2.16,0.64c-0.94,1.32-2.64,2.26-3.83,2.19c-2.06-0.12-2.43,1.99-4.01,2.17
		C109.78,295.82,107.21,295.16,108,299z"/>
	<path d="M305,3c1.8-1.17,2.34-3.25,2.9-4.99c1.42-4.44,4.15-8.28,5.4-12.76c0.12-0.42,0.67-0.72,1.07-1.11
		c2.55,6.01,4.97,12.05,7.73,17.94c0.66,1.41,0.9,2.69,0.91,4.12c0.01,4.14,0,8.29,0,12.9c1.96-0.51,3.95,0.82,5.56-1.1
		c2.39,0.67,4.93,1.02,7.13,2.07c3.59,1.72,7.03,3.84,8.67,7.8c4.54,10.94,0.35,19.16-9.66,23.93c-3.48,0.08-7.01,0.88-10.74-0.72
		c0.37,4.95,3.21,8.75,5.05,12.92c2.28,1.28,2.61,3.75,3.55,5.85c-0.6,1.83,2.28,4.72-1.77,5.54c2.2,0.98,3.1-2.45,5.21-1.39
		c3.02,5.06,8.45,6.19,13.4,7.91c2.51,0.87,5.34,1.84,8.02,1.02c3.78-1.16,7.76-1.09,11.51-2.32c3.55-1.16,6.7-3.11,10.07-4.62
		c2.25-2.82,4.9-5.05,8.62-5.61c2.14,1.24,3.02-1.53,4.9-1.5c1.59,0.42,1.97,2.42,3.48,3.1c-0.43,4.39,0.78,8.52,1.96,12.67
		c0.8,2.79,3.16,4.63,4.04,7.33c0.1,1.9,1.77,2.23,3,3c3.28,1.99,6.37,4.21,10.25,5.16c1.34,0.33,2.66,0.83,4.08,0.83
		c3.13,0.02,6.26,0.01,9.4,0c0.68,0,1.35-0.03,1.27-1c5.47-2.4,10.69-5.29,16-8c1.71-0.95,3.05-2.29,4-4
		c0.04-0.67,0.35-1.24,0.73-1.77c0.91-1.13,1.85-2.26-0.24-3.19c-5.83-3.77-7.35-9.34-6.68-15.84c0.23-2.25,1.09-4.11,3.19-5.21
		c1.01,0.03,1.46-0.84,1.88-1.44c2.35-3.39,6.19-3.79,9.65-4.42c2.75-0.5,5.47,1,7.78,2.7c0.8,0.58,1.43,1.39,2.36,2.33
		c0.75-0.86,1.84-1.6,2.18-2.59c1.29-3.7,4.93-4.16,7.72-5.4c2.02-0.9,4.72,0,7.03-1.11c1.21-0.58,1.98,1.43,3.58,1.04
		c1.14-0.28,2.6-0.52,3.98,0.43c-1.29,3.68-3.66,6.85-5.59,10.1c-1.82,3.06-3.49,6.27-5.45,9.29c-4.98,7.68-8.91,16-13.97,23.69
		c-1.41,2.14-3.44,4.31-3.85,6.81c-0.3,1.83-3.34,1.2-2.32,3.51c0.9,2.03-1.43,2.7-2.06,4.12c-1.39,3.1-3.25,5.98-4.91,8.95
		c-1.15,0.75-1.95-0.83-3.06-0.49c0.3,1.21,1.79,2.02,1.06,3.49c-0.67,1.33-1.33,2.67-2,4c-1.06,0.28-1.69,0.98-2,2
		c0,0.5,0.2,1.13-0.03,1.48c-2.99,4.55-5.72,9.25-8.1,14.15c-3.05,1.43-3.17,4.51-4.27,7.14c-1.13,2.7-3,5.09-4.5,7.64
		c-2.2,3.74-4.35,7.51-6.62,11.43c-0.88,0.27-1.83,0.35-2.84-0.65c-2.38-2.33-5.61-3.44-8.43-5.01c-3.9-2.16-7.91-4.28-11.76-6.49
		c-7.55-4.34-15.16-8.6-22.61-13.13c-4.46-2.71-9-5.46-13.84-7.55c-0.28-0.12-0.66-0.02-0.99-0.02c-1.18-0.15-1.53-1.14-2-2
		c-6.87-3.84-13.74-7.65-20.45-11.77c-3.51-2.15-7.39-3.75-10.88-6.04c-4.45-2.91-9.68-4.52-13.67-8.2
		c-1.26-3.47-5.16-1.8-7.73-3.56c-3.37,4.12-11.08,2.92-13.27,9.56c-0.67,1.55-2.35,2.28-3.52,2.82c-5.07,2.35-9.69,5.41-14.5,8.16
		c-0.25,0.14-0.65,0.02-0.98,0.02c-1.49,0.61-2.83-0.35-4.27-0.42c0.54,0.76,1.81,1.11,1.27,2.42c-5.41,3.31-10.87,6.57-16.38,9.66
		c-3.87,2.17-7.71,4.47-11.76,6.33c-2.67,1.23-5.21,2.85-7.53,4.49c-2.37,1.67-5.47,2.13-7.32,4.52c-3.29,3.55-7.36,5.76-12,7
		c-0.81-0.01-1.46,0.17-2.23,0.64c-4.89,2.94-9.88,5.71-14.68,8.45c-2.27-0.83-2.76-2.97-3.75-4.45c-2.9-4.35-5.24-9.08-7.84-13.63
		c-1-1.75-2.03-3.49-3.18-5.14c-0.46-0.66-0.18-1.26-0.31-1.87c1.31-6.83,1.31-6.83-0.97-10.04c-1.39,0.63-0.57,3.48-3.03,3.04
		c-2.85-2.3-4.13-5.77-5.83-8.76c-3.05-5.35-6.08-10.73-9.19-16.06c-2.42-4.15-4.92-8.28-7.66-12.22c-0.65-0.93,1.92-1.77-0.11-1.89
		c-1.59-0.1-0.99-1.4-1.57-2.01c-0.51-0.53-0.57-1.57-1.12-1.96c-0.8-0.57,0.04-2.2-1.51-2.11c-2.3-0.88-2.43-3.07-3-5
		c0.4-1.56-0.79-2.31-1.68-3.16c-0.83-0.79-1.64-1.54-1.32-2.84c-0.31-0.25-0.51-0.56-0.61-0.94c-0.17-0.79-0.68-1.29-1.39-1.62
		c-0.53-0.35-0.89-0.8-1-1.43c0-0.67,0-1.33,0-2c0.24-0.38,0.52-0.75,0.71-1.23c-0.61-0.17-1.07,0.94-1.71,0.23
		c-0.6,0.11-0.93-0.25-0.98-0.74c-0.12-1.28-0.86-1.94-2.02-2.26c0-0.33,0-0.67,0-1c-3.13-3.53-5.32-7.62-7-12c-0.5-1.73-2.17-3-2-5
		c4.67-0.29,9.33-0.81,14,0c1.57,0.9,3.4,1.18,5,2c0.91,2.23,3.27,3.14,4.3,4.96c1.91,0.29,2.34-1.34,3.4-2
		c3.78-2.35,7.87-2.12,11.81-1.89c1.09,2.61,4.13,2.11,5.49,3.93c-0.5,2.46,1.13,3.32,3,4c0,0.33,0,0.67,0,1
		c-1.02,3.94,0.16,8.07-1,12c-2.79,1.46-4.2,4.97-8.06,5.04c5.13,6.75,11.69,11.31,18.36,15.63c2.01,1.3,4.74,1.76,7.06,2.02
		c5.43,0.6,11.02,1.05,16.34-0.93c5.26-1.95,9.41-5.59,12.75-9.9c1.87-2.41,2.89-5.57,2.55-8.87c1.02-3.01,0.47-6.13,0.4-9.17
		c-0.06-2.82-1.71-4.35-4.77-4.39c-3.53-0.05-6.9-0.73-8.63-4.43c-6.01-4.94-7.19-11.23-3-16c1.15-2.2,3.08-3.76,4.91-5.26
		c1.21-0.99,3.04-1.55,4.64-1.66c3.11-0.22,6.37-0.59,9,1.89c0.26,0.24,0.95,0.03,1.44,0.03c2.14,0.52,3.18,2.16,4,4
		c-0.01,0.81,0.22,1.46,0.63,2.23c2.55,4.8,1.65,9.98-2.24,13.86c-0.8,0.8-1.7,1.5-2.52,2.21c4.11,4.35,8.2,8.2,13.07,11.21
		c3.58,2.2,7.38,4,11.33,5.08c4.2,1.15,8.49,2.32,12.96,2.46c4.89,0.15,9.35-1.11,13.53-3.42c0.78-0.43,1.43-0.64,2.24-0.63
		c1.26-0.74,2.28-1.72,3-3c1.45-1.23,2.36,0.07,3.36,0.71c0.64-1.87,1.11-3.8,1.64-5.71c4.27-6.06,7.78-12.5,10.02-19.45
		c-1.57-1.77-1.98,0.69-3.13,0.49c-1.13-0.19-2.32-0.09-3.47-0.03c-7.28,0.35-12.38-3.25-15.94-9.18c-0.79-1.33-1.6-3.04-1.49-4.84
		c0.05-0.83,0.08-1.67,0-2.49c-0.68-6.37,1.89-11.05,7.3-14.32c0.37-0.23,0.87-0.55,0.71-1.18c0.75-1.07,2.22,0,3-1
		c1.54-0.97,3.42-0.24,5-1c0.33,0,0.67,0,1,0c2.49,0.68,5.01,1.48,6.9-1.23c1.28-0.75,2.43,0.46,4.23,0.21
		c-1.42-1.67-4.77,0.89-4.73-2.39C304.82,10.74,303.93,6.82,305,3z"/>
	<path class="st1" d="M128,318c0,0.33,0,0.67,0,1c-0.95,0.56-1.28,1.38-1.3,2.49c-0.04,2.16-0.22,4.31-0.22,6.48
		c0.01,64.25,0.02,128.51-0.06,192.76c0,2.4,1.2,4.95-0.42,7.27c-0.64-0.33-1.25-0.89-1.92-0.96c-1.54-0.16-0.96-1.25-1.08-2.04
		c-0.95-1.9-0.46-3.93-0.46-5.89c-0.03-62.74-0.02-125.48-0.05-188.23c0-1.96,0.51-3.99-0.49-5.88c-0.63-0.11-0.96,0.27-0.98,0.79
		c-0.05,1.5-0.02,3-0.02,4.5c0,63.27,0,126.55,0,189.82c0,1.61,0,3.23,0,4.84c-1.36-1.47-0.98-3.09-0.98-4.63
		c-0.03-23.98-0.02-47.95-0.02-71.93c0-39.96,0-79.92,0-119.88c0-1.33-0.15-2.69,0.07-3.98c0.1-0.6,1.37-1.02,0.17-1.78
		c0.74-1.63,1.84-2.85,4.48-2.88c-2.06-1.03-3.38-1.69-4.71-2.36c0.52-0.74,1.38-0.7,1.83-0.46c1.14,0.62,2.03,0.67,3.25,0.04
		c0.57-0.29,1.63,1.12,2.56,0.05C127.76,317.43,127.88,317.72,128,318z"/>
	<path class="st1" d="M179,555c0-50.65,0-101.31,0-151.96c0.23-0.03,0.46-0.06,0.7-0.09c1.43,3.87,2.8,7.77,4.33,11.6
		c0.88,2.2,1.42,4.56,2.97,6.46c1.14,1.48,1.56,3.24,2,5c-0.39,1.84,0.62,3.35,1.41,4.79c0.42,0.77,0.59,1.42,0.59,2.21
		c-1.56-0.19-0.49,1.73-1.63,1.93c-0.56-1.23-1.13-2.49-1.82-4c-1.48,2.5,0.76,3.93,1.29,5.73c-2.01,1.31-1.78-0.8-2.31-2.14
		c-0.39,1.1-0.6,1.68-0.83,2.35c-0.46-0.23-0.92-0.46-1.72-0.86c0,37.74,0,75.29,0,112.85c-0.51-0.65-0.21,0.41-0.68-0.06
		c-0.11-0.11-0.29-0.25-0.29-0.37C183,506.11,183,463.8,183,421.52c0.36-0.91,1.66-0.08,1.93-1.1c-0.86-0.72-1.78-0.52-2.86-0.09
		c0,43.04,0,86.15,0,128.81c-0.47,1.24-1.78,0.39-1.96,1.46c0.75,1,2.03-0.21,2.75,0.73c-0.39,1.87-0.44,1.89-2.5,0.76
		c-0.54,0.78-0.72,1.67,0.4,1.84c0.97,0.15,1.42,0.75,1.96,1.31c0.53,0.55,0.47,1.3-0.18,1.65c-0.56,0.3-1.5,0.22-1.49-0.61
		C181.05,554.58,179.9,555.07,179,555z"/>
	<path class="st2" d="M389,60c-0.05-1.26-0.48-2.4-0.85-3.6c-1.42-4.68,2-10.83,6.38-13.6c1.89-1.19,3.95-1.86,5.9-2.55
		c3.29-1.16,6.68,0.37,9.28,2.18c3.3,2.28,6.04,5.39,5.33,10.13C414.78,54.33,415,56.18,415,58c-1.81,6.03-4.37,8.24-9.84,8.49
		c-2.71,0.32-5.5-0.67-8.16,0.51c-1.77,1.91-3.58,2.71-5.46,0.14c0.01-0.69,0.32-1.24,0.79-1.71c0.38-0.6,1.11-1.17,0.64-1.94
		c-0.17-0.27-0.88,0.08-1.36,0.03C389.66,63.13,389.52,61.43,389,60z"/>
	<path class="st3" d="M305.55,653.89c-1.36,0-1.81,0-2.38,0c0-141.65,0-283.18,0-424.72c1.14,1.52,0.82,3.24,0.82,4.88
		C304,335.85,304,437.65,304,539.46c0,36.49-0.01,72.98,0.03,109.47C304.04,650.46,303.25,652.28,305.55,653.89z"/>
	<path class="st4" d="M244,409c1.23-2.29,1.22-5.22,3.76-7.15c0,94.64,0,189.1,0,283.57c0.45,1.1,2.44-0.04,2.24,1.58
		c-1.5,1.34-2.71,0.22-4.28-0.64c1.55-1.53,1.28-3.49,1.28-5.4c0-87.28,0-174.55-0.01-261.83c0-1.75-0.34-3.39-0.84-5.13
		C245.15,410.48,245.51,410.38,244,409z"/>
	<path class="st5" d="M579,574c-0.03-0.69,0.31-1.03,1-1c0.12,0.28,0.23,0.57,0.35,0.85c0.66-0.11,0.33,0.58,0.33-0.06
		c0.74-98.9,0.03-197.8,0.69-296.72c1.02,1.62,0.6,3.4,0.6,5.09c0.03,95.33,0.02,190.66,0.04,285.99c0,1.75-0.31,3.57,0.56,5.7
		c-0.61,0.53-1.26,1.82-2.63,2.18C578.53,575.73,579.15,574.71,579,574z"/>
	<path class="st5" d="M45,277c-0.63-0.11-0.96,0.27-0.98,0.79c-0.05,1.5-0.02,3-0.02,4.5c0,95.27,0,190.55,0,285.82
		c0,1.61,0,3.23,0,5.07c-0.55-0.32-0.77-0.39-0.77-0.46C43.15,473.15,43.07,373.57,43,274C44.58,274.39,45.16,275.45,45,277z"/>
	<path class="st5" d="M449,290c-0.63-0.11-0.96,0.27-0.98,0.79c-0.05,1.49-0.02,2.99-0.02,4.49c0,34.09,0,68.18,0,102.3
		c-1.22,0.85-2.59,0.39-3.85,0.4c-20.62,0.04-41.25,0.04-61.87-0.02c-1.07,0-2.68,0.99-3.28-0.95c20.5,0,40.99,0,61.83,0
		c0.12-2.64,0.24-5.31,0.36-7.99c0.24,0,0.48,0.01,0.72,0.01c0,2.58,0,5.17,0,7.81c0.8,0.06,1.25,0.1,2.05,0.16
		c0-34.67,0-69.24,0-104.9c0.55,1.73,0.16,0.68,0.7,1.07c0.13,0.09,0.33,0.24,0.33,0.36C445,327.85,445,362.18,445,396.5
		c0.49,0.57,1.06,0.67,2.04,0.1c-0.47-1.5,0.71-3.27-0.77-4.91c-0.35-0.39-0.49-1.44-0.22-1.83c1.67-2.41,0.91-5.08,0.91-7.62
		c0.06-27.83,0.05-55.66,0.01-83.49c0-2.21,0.44-4.46-0.87-6.65c-0.51-0.86-0.58-2.58,0.81-3.57c0.58-0.42,1.09-0.75,1.72-0.37
		C449.36,288.6,448.86,289.39,449,290z"/>
	<path class="st6" d="M45.5,277c0.65,3.89,0.73,290.88,0.07,295.93C44.8,569.33,44.73,282.38,45.5,277z"/>
	<path class="st4" d="M243.83,421.19c0,87.88,0,175.76,0,264.23c-0.35-1.22-0.02-0.17-0.52-0.61c-0.12-0.11-0.3-0.24-0.3-0.37
		C243,596.68,243,508.92,243,421.16C243.28,421.17,243.55,421.18,243.83,421.19z"/>
	<path class="st3" d="M322,448.96c0-1.94,0-3.59,0-5.23c0-79.61,0.02-159.21-0.06-238.82c0-3.04,0.98-6.23-0.7-9.18
		c-0.35-0.61,0.35-0.74,0.59-1.05c0.89-1.12,1.96-0.9,3.05-0.34c-0.13,1.2-1.53,0.2-1.84,1.13c0.31,0.33,0.96,0.91,0.9,0.98
		c-2.08,2.94-0.88,6.24-0.89,9.32c-0.08,77.44-0.08,154.88-0.03,232.32c0,3.36-0.79,6.82,0.89,10.11
		C324.29,448.92,323.18,449.03,322,448.96z"/>
	<path class="st1" d="M327,567c0,19.33,0,38.67,0,58c-1.18,1.42-1.18,1.42,1.05,2.47c-1.07,0.66-2.4,1.08-2.9,0.01
		c-0.46-0.99-0.62-2.04-1.78-1.27c-1.37,0.91,0.23,1.58,0.55,2.35c-1.8,1.96-2.12-2.23-3.71-0.84c1.05-0.95,2.11-1.91,2.78-2.52
		c0-16.85-0.06-32.98,0.06-49.11c0.02-2.48-0.69-3.95-3.06-4.56c0.46-0.87,1.62-0.21,2.01-1.17C323.14,567.63,323.74,567.26,327,567
		z"/>
	<path class="st5" d="M324.5,197c0.65,3.89,0.73,242.89,0.07,247.93C323.8,441.33,323.73,202.37,324.5,197z"/>
	<path class="st7" d="M126,528c0-69.4,0-138.81,0.01-208.21c0-0.15,0.09-0.29,0.15-0.46c0.51-0.65,1.23-0.2,1.85-0.33
		c-1.2,2.18-0.13,4.67-0.95,6.94c-0.32,0.88-0.05,1.98-0.05,2.98c0,63.78,0,127.55,0.01,191.33c0,2.37-0.44,4.86,1.77,6.9
		c1.44-0.73,2.94-1.5,4.49-2.29c0.56,0.51,1.03,0.95,1.48,1.36c0.06,0.16,0.17,0.32,0.13,0.39c-0.59,0.93-2.48,1.61-1.75,2.64
		c0.88,1.25,0.06,1.86-0.12,2.75C130.67,530.67,128.33,529.33,126,528z"/>
	<path class="st8" d="M500,528c0-66.33,0-132.66,0-198.99c0-0.33,0-0.67,0-1c-0.01-4.26-0.01-4.26-4-5.66
		c0.66-0.24,1.24-0.46,1.83-0.67c-0.23-0.46-0.46-0.91-0.67-1.34c1.17-1.05,1.68,0.35,2.49,0.52c0.67-0.52,0.22-1.24,0.35-1.86
		c0.63-0.11,0.96,0.27,0.98,0.79c0.05,1.33,0.02,2.66,0.02,4c0,66.47,0,132.95,0,199.42c0,1.33,0.04,2.67-0.02,4
		C500.96,527.73,500.63,528.11,500,528z"/>
	<path class="st9" d="M122,325c0.63-0.11,0.96,0.27,0.98,0.79c0.05,1.5,0.02,2.99,0.02,4.49c0,64.91,0,129.81,0,194.72
		c-0.63,0.11-0.96-0.27-0.98-0.79c-0.05-1.5-0.02-2.99-0.02-4.49C122,454.81,122,389.91,122,325z"/>
	<path class="st9" d="M451,87c0.03,0.69-0.31,1.03-1,1c-1.65-0.81-3.3-1.63-4.98-2.46c0.33-0.36,0.64-0.7,0.96-1.05
		c-0.98-1.32-2.48-1.92-3.93-2.45c-1.67-0.6-1.3-2.26-2.06-3.31c1.9-2.12,0.59-4.7,1.04-7.03c0.11-0.55,0.68-1.02,0.99-1.44
		c-0.06-1.59-1.8-1.95-2.15-3c0.61-2.21,3.35-2.61,3.14-4.94c1.38-0.65,2.71-0.14,3.98-0.32c-2.77,3.68-2.42,8.04-1.82,12.05
		c0.42,2.8,2.4,5.39,4.73,7.46c0.67,0.6,2.19-0.06,2.09,1.49C452.85,84.63,450.88,85.55,451,87z"/>
	<path class="st10" d="M324,131c-0.81-0.43-1.16,1.79-2.32,0.3c-0.52-0.67-1.79-0.59-2.62,0.15c-1.03,0.92-1.89,2.66-3.46,0.65
		c-1.07,1.06-2.04,1.32-3.16-0.05c-0.27-0.33-1.5-0.33-1.89,0c-3.11,2.59-4.16-0.13-5.54-2.04c0.49-2.1,2.58-2.09,3.98-2.97
		c1.46-0.92,3.23-1.34,4.33-2.85c3.24,1.36,5.77,4.04,9.27,4.98C323.13,129.31,324.03,129.99,324,131z"/>
	<path class="st3" d="M214,47c-1.78,2.79-1.21,5.98-0.83,8.84c0.28,2.07,0.84,4.64,3.13,6c0.37,0.22,0.85,0.55,0.69,1.16
		c-2.43,0.48-2.92-2.19-4.64-2.86c-0.89,1.1,0.16,2.57-0.68,3.68c-1.82-0.27-1.25-3.08-3.43-3.18c-0.51-0.02-0.53-1.78-0.11-2.17
		c1.39-1.25,1.12-2.92,0.75-4.11c-0.66-2.12-0.35-3.71,0.95-4.75c0.48-1.48-0.98-1.62-0.85-2.53c0.94-1.7,1.87-3.4,2.86-5.07
		c0.05-0.08,0.57,0.13,0.87,0.2C211.7,44.95,211.7,44.95,214,47z"/>
	<path class="st4" d="M446,92c-0.89,2.25-3.26,2.73-4.97,3.92c-1.96,1.35-4.61,1.75-6.46,3.19c-1.58,1.23-3.06,0.62-4.57,0.89
		c-0.18-1.58,1.74-0.47,1.91-1.62c-0.71-1-2.07,0.09-3.03-0.89c-0.94-0.95-2.55-0.85-3.57-0.17c-1.08,0.71-1.97,0.86-3.6,0.21
		c2.84-1.03,4.84-3.01,7.84-2.56c0.89,0.13,0.92-0.07,3.12-1.96c1.22-0.29,1.68,1.3,3.06,1.09c1.03-0.16,1.44-1.38,2.54-1.09
		c0.83,0.22,1.27,1.67,2.46,0.74c-0.55-1.55-0.33-2.88,1.29-3.74c-0.07,1.16-0.14,2.28,1.62,2.02C444.4,91.91,445.21,92,446,92z"/>
	<path class="st11" d="M406,177c0,20,0,40,0,60c-1.71-0.74-2.87-1.65-1.08-3.53c-0.47-1.09-2.63-1.51-1.57-3.52
		c0.45,0.4,0.8,0.7,1.14,1.01c0.1-0.09,0.32-0.19,0.32-0.29c0.02-16.4,0.01-32.79,0.01-50.06c-0.49-0.48-1.5-1.46-2.44-2.37
		c0.37-0.14,0.95-0.35,1.51-0.56c-0.14-1.24-1.53-0.23-1.91-1.4c1.65,0.03,2.49-1.35,3.58-2.32c0.82,1.19,0.15,1.68-0.31,2.37
		C404.89,176.87,405.51,177.02,406,177z"/>
	<path class="st12" d="M297,116c0.3-1.08-1.95-1.21-0.75-2.64c0.64-0.72,0.73,0.48,1.41,0.63c0.82-1.63,0.15-2.29-2.61-1.85
		c1.39-1.25,1.95-1.75,2.21-1.98c1.44-0.48,1.71,0.71,2.68,0.89c1.57-1.17,4.4-1.01,4.23-4.19c1.03,0.54,0.66,1.35,1.12,2.01
		c0.88-0.43,1.79-0.87,2.69-1.31c-0.33-0.37-0.65-0.72-1.15-1.29c2.17,0.13,3.8-1.7,5.94-1.23c0.15,1.66-1.43,0.4-1.63,1.35
		c0.13,0.19,0.26,0.58,0.41,0.59c0.99,0.04,2.02,0.18,2.97-0.04c3.02-0.71,3.09-0.7,3.46,2.07c0.04,0.33,0.01,0.66,0.01,1
		c-0.8,0-1.55,0.11-2.2-0.67c-1.65-1.96-3.43-1.76-5.45-0.37c-2.27,1.56-4.68,2.94-7.11,4.25C301.24,114.3,299.49,115.99,297,116z"
		/>
	<path class="st4" d="M389,60c0.6-0.11,0.93,0.25,0.98,0.74c0.12,1.28,0.86,1.94,2.02,2.26c1.08,0.75,2.05,1.54,1,3
		c-0.69-0.03-1.03,0.31-1,1c-0.84,1.83-1.88,3.45-4,4c-2.3-0.24-3.39,1.87-5.09,2.78c-1.29,0.69-2.68,1.36-3.91,2.22
		c0.16-0.63-0.42-0.83-0.96-1.55c2.29-0.48,2.18-3.46,4.79-3.96c0.86-0.16,1.89-0.19,2.71-0.59c0.56-0.28,0.96-0.9,1.43-1.37
		c-1.55-0.59,0.31-1.93-0.44-2.42c-1.34-0.87-1.28-2.59-2.55-3.6C385.58,61.45,388.02,62.09,389,60z"/>
	<path class="st3" d="M220,161c3.67-2.9,7.82-4.97,12-7c0.59,1.13-1.21,1.92-0.57,2.85c0.76,1.09,1,2.15,0.11,3.03
		c-1.2,1.19,1.45,1.74-0.07,3.1c-0.19-0.89-0.39-1.86-0.72-3.49c-2.34,2.77-3.6,3.93-5.52,3.52c-1.58-0.34-0.95,1.34-1.69,1.93
		C222.71,163.31,221.84,161.7,220,161z"/>
	<path class="st13" d="M166,207c-3.74,2.77-7.91,4.79-11.97,7c-0.66,0.36-1.35,0.67-2.03,1c0.13-0.61-0.35-1.37,0.35-1.83
		c1.2-0.8-0.17-1.18-0.26-1.76c1.29-1.29,2.44-2.79,3.91-3.8c1.22-0.84,3.08-0.78,4.23-1.67c2.08-1.61,3.48-0.98,4.93,0.71
		C165.34,206.85,165.72,206.88,166,207z"/>
	<path class="st10" d="M469,213c-0.92,0.02-1.2,0.4-0.44,1.04c1.43,1.2,3.48,1.65,4.24,3.62c-2.35,1.77-3.17,1.79-5.34,0.33
		c-1.8-1.21-3.91-2.09-3.84-4.82c0.01-0.34-0.65-0.7-0.92-0.97c-0.81,0.31-1.57,0.6-2.85,1.09c0.52-1.07,0.75-1.52,0.96-1.95
		c-0.38-0.74-1.39,0.1-1.68-0.83c0.31-0.98,1.79-1.24,1.86-2.51C463.75,209.53,466.56,210.97,469,213z"/>
	<path class="st14" d="M315,722c1.12-1.79,3.24-2.02,4.88-2.92c2.4-1.31,4.86-2.51,7.12-4.08c-0.16,0.63,0.41,0.83,0.69,1.2
		c0.24,1.3-1.47,1.35-1.56,2.48c0.56,0.22,1.12,0.43,1.69,0.65c-2.31,2.17-6.22,4.13-11.28,5.67C315.14,724.45,317.1,722.19,315,722
		z"/>
	<path class="st3" d="M217,63c2.46,2.38,5.8,2.83,8.82,3.97c1.31,0.5,2.33-0.77,3.59-1.22c2.26,4.95,1.6,9.95,1.4,14.9
		c-0.01,0.13-0.53,0.24-0.82,0.35c-0.27-1.38,0.21-2.75-0.5-4.24c-0.39-0.81,0.6-2.44,0.52-3.81c-0.13-2.16-1.1-3.65-3.09-4.58
		c-0.65-0.3-1.11-0.55-1.71-0.08c-0.37,0.29-0.69,1.02-1.16,0.68c-1.12-0.81-2-0.46-3.18-0.08c-0.82,0.26-1.74-1.01-3-0.98
		c-0.99,0.02-1.36-1.93-0.9-3.44C217.12,64.02,217,63.49,217,63z"/>
	<path class="st7" d="M538,596c0.22-1.42,0.22-1.42,0.93-2.55c-0.54-1.32-2.13-1.23-2.94-2.12c-0.08-1.29,0.96-1.67,1.74-2.47
		c2.36,1.32,4.77,2.17,6.58-0.79c1.16,0.25,0.28,1.57,1.17,1.91c0.58-0.71,1.68-1.07,1.52-2.31c-0.15-1.16,0.14-1.97,1.64-1.56
		c0.76,0.93-0.99,1.02-0.69,1.91c0.2,0.6,0.04,1.32,0.04,1.99c-0.34,1.17-1.29,1.5-2.26,2.1c-2.08,1.3-4.73,1.72-6.31,3.87
		C539.26,596.2,538.49,596,538,596z"/>
	<path class="st5" d="M442.98,451.1c0.82,0,1.27,0,1.87,0c0,14.96,0,29.83,0,44.8c-0.59,0-1.04,0-1.91,0
		c1.44-3.29,1.03-6.63,1.05-9.94c0.02-3.49,0-6.97,0-10.46c0-3.32,0-6.64,0-9.96c0-3.49-0.12-6.98,0.06-10.46
		C444.14,453.65,442.86,452.82,442.98,451.1z"/>
	<path class="st10" d="M184,138c1.59-1.18,1.23-3.29,2.33-4.87c1.84,0.77,2.36,3.41,4.86,3.03c-1.09,2.78-1.11,3.25-0.35,5.18
		c-0.53,1.55-2.51,1.96-2.84,3.66C186.42,142.81,184.07,141.06,184,138z"/>
	<path class="st15" d="M505,615c0.12-1.37-1.19-0.73-2.01-1.51c0.97-0.71,2.47-0.86,2.98-2.11c-0.72-0.27-1.29-0.48-1.91-0.72
		c2.42-1.72,4.85-3.29,7.61-4.53c0.41,0.45,0.96,1.06,1.41,1.57c1.06,0.35,2.23-2.26,2.92,0.3c0.12,0.82-0.57,1.22-1.05,1.5
		C511.66,611.38,508.32,613.18,505,615z"/>
	<path class="st7" d="M199,189c0.02,0.8-0.24,1.68,1.12,2.38c-1.1,1.1-2.11,2.11-3.21,3.21c0.88,0.32,1.45,0.52,2.05,0.74
		c-0.78,1.22-2.38,0.64-2.91,2.07c-1.17-1.06-2-1.8-2.87-2.58c-1.43,1.13-2.81,1.39-4.19,0.17C192.1,192.61,195.46,190.65,199,189z"
		/>
	<path class="st16" d="M453,555c3.1-2.39,6.46-4.35,10-6c0.02,0.8-0.24,1.68,1.12,2.38c-1.1,1.1-2.11,2.11-3.21,3.21
		c0.88,0.32,1.45,0.52,2.23,0.8c-1.22,0.62-2.27,1.15-3.39,1.72c-0.86-0.77-1.67-1.51-2.55-2.3C455.76,555.95,454.38,556.21,453,555
		z"/>
	<path class="st17" d="M405,66c3.17,0.1,5.23-1.72,7-4.04c1.01-1.32,2-2.64,3-3.96c1.52,3.19,0.56,6.41-2.38,8
		c-1.21,0.65-2.35,1.45-3.61,1.97c-1.48,0.61-2.46-1.44-4-0.97c-0.33-0.22-0.44-0.44-0.33-0.67C404.78,66.11,404.89,66,405,66z"/>
	<path class="st18" d="M143,568c0.62,1.22-1.62,2.36-0.1,3.6c-0.47,0.47-0.9,0.99-1.42,1.38c-0.21,0.16-0.86,0.15-0.94,0.01
		c-1.03-1.87-2.15,0.63-3.12-0.09c-0.53-0.39-0.95-0.92-1.41-1.39c0.7-0.91,1.55-1.6,2.73-1.73c0.34-0.71-1.58-1.51,0.36-2.22
		c-1.14-0.66-2.45-0.86-3.03-2.01c0.2-0.59,1.1-0.74,0.94-1.55C138.91,565.47,141.88,565.35,143,568z"/>
	<path class="st15" d="M194,655c0.99,0.04,1.23-0.94,1.87-1.37c1.51-1,3-1.06,3.56,0.48c0.64,1.75,2.1,2.31,3.25,2.76
		c1.5,0.58,2.16,1.84,3.31,2.6c-0.3,1.01-2.16-0.07-1.99,1.53C200.67,658.99,197.12,657.36,194,655z"/>
	<path class="st19" d="M137,59c1.21,1.68,3.03,3.02,3.54,5.09c0.64,2.6,3.33,4.1,3.46,6.91c-1.7-0.33-2.11-2.32-3.64-2.83
		c-0.8,0.34,0.13,1.38-0.87,1.69c-1.1-0.05,0.01-1.5-0.96-1.78c-0.31,0.27-0.66,0.57-1.34,1.17c-0.01-2.52,1.79-4.68,0.38-7.03
		c-0.85-0.23-1.88-0.63-2.51-1.67C135.27,59.49,137.21,60.61,137,59z"/>
	<path class="st19" d="M194,596c-2.84-1.39-5.77-2.64-8-5c0.82,0.13,0.98-0.88,1.55-0.96c0.96-0.14,2.61-0.38,2.82,0.02
		c0.81,1.56,2-0.3,2.96,0.62c0.92,0.88,2.42,1.15,3.63,1.68C196.6,594.16,193.32,593.43,194,596z"/>
	<path class="st20" d="M388,71c0.95-1.71,2.29-3.05,4-4c0.12,0.28,0.23,0.57,0.35,0.85L397,67c0.17,1.77-1.51,3.16-1,5
		c-0.81-0.14-0.98,0.71-1.5,0.95c-1.45-0.81-1.54-2.25-1.7-4.21c-1.4,1.39-2.74,2.28-3.07,4.12C388.8,72.52,388.2,71.95,388,71z"/>
	<path class="st7" d="M181,78c0.46-0.81-1.79-1.11-0.31-2.27c1.44-1.13-0.99-1.73-0.7-2.86c0.23-0.9-0.16-1.82,0.36-2.8
		c0.67-1.28-0.3-3.26,1.66-4.07c2.32,0.65,0,3.01,1.47,3.99c0.19,0.12,0.38,0.62,0.34,0.65c-1.87,1.44,0.19,3.9-1.34,5.3
		C181.79,76.56,182.54,78.1,181,78z"/>
	<path class="st19" d="M305,3c0,4.33,0,8.67,0,13c0.37,0.22,0.49,0.44,0.37,0.67C305.25,16.89,305.12,17,305,17
		c-0.12,0.94,0.28,1.94-0.5,3.11c-1.76-0.81-3.66-1.45-5.73-1.14c-0.47,0.07-0.88-0.35-0.76-0.97c2-0.34,4.4,0.97,5.91-1.41
		c-0.22-1.07-1.55-0.18-1.87-1.05c0.33-0.75,1.13-0.39,1.7-0.76c0.53-0.76-0.86-0.87-0.61-1.36c0.27-0.55,0.91-0.85,0.89-1.64
		c-0.05-2.5-0.02-5-0.02-7.5C304,3.61,304.01,2.92,305,3z"/>
	<path class="st18" d="M481,570c-0.19,1.6,1.71,0.51,2.03,1.76c-2.61-0.26-4.26,1.61-5.97,2.99c-2.46,1.99-2.32,2.21-5.08,1.27
		c-0.29-0.1-0.65-0.01-0.98-0.01c0.17-1.07,0.96-1.57,1.83-2C475.55,572.66,478.28,571.33,481,570z"/>
	<path class="st20" d="M208,477c0.5,0,0.99,0,1.85,0c-2.16-2.93,1.36-4.42,1.27-7c0.45,0.28,0.78,0.37,0.86,0.56
		c0.77,1.74-1.09,2.85-1.11,4.54c-0.01,1.22,1.45,2.12,0.26,3.74c-0.86,1.17,0.97,1.09,1.86,1.17c0.34,1.54-1.05,2.48-1.37,4.1
		C209.35,482.14,209.66,479.04,208,477z"/>
	<path class="st8" d="M438,652c0.17-1.58-1.73-0.48-1.95-1.78c2.76-0.33,4.63-2.25,6.53-4.34c1.45,0.33,2.75,1.56,4.42,1.12
		c0.03,0.69-0.31,1.03-1,1c-0.55,2.04-2.26,2.55-4,3c-1.27-0.49-1.94,0.86-3,1C438.67,652.41,438.33,652.41,438,652z"/>
	<path class="st11" d="M164,579c-2.29-1.41-5.08-1.95-7-4c0.49,0,0.98,0,1.48,0c1.04-0.68,0.18-1.84,0.68-2.65
		c0.23-0.46,0.37-0.38,0.71-0.02c1.71,1.87,4.02,2.86,6.14,4.16C165,577.07,163.31,577.09,164,579z"/>
	<path class="st15" d="M336,74c-1.67,0.45-2.24,2.26-3.81,3.03c-0.95-1.33-2.98,0.49-4-1.41c0.39-0.81,0.83-1.7,1.27-2.61
		c0.7,0.67,1.39,1.32,2.07,1.97c0.49-0.49,0.95-0.95,1.41-1.41c-0.28-0.77-1.05-0.45-1.72-0.76c0.01-0.96,1.22-1.7,0.79-2.8
		c1.1-0.54,1.46,0.42,2,1C334.67,72,335.33,73,336,74z"/>
	<path class="st19" d="M438,652c0.33,0,0.67,0,1,0c-0.43,0.81,1.85,1.23,0.27,2.29c-0.69,0.46,1.22,0.83,0.26,1.76
		c-0.8,0.78-1.58,1.06-2.61,0.95c-0.9-0.1-1.08,1.28-2.22,0.94c-0.74-0.36-1.49-0.9-1.7-1.94C434.67,654.67,436.33,653.33,438,652z"
		/>
	<path class="st15" d="M145,538c-0.05-1.01,1.01-1.22,1.35-1.86c1.26-0.77,1.67,0.68,2.56,0.9c2.58,0.64,2.43,0.73,2.58,2
		c0.13,1.08,0.02,2.03-0.5,2.96C148.7,541.11,146.78,539.66,145,538z"/>
	<path class="st21" d="M238,46c-1.71-0.95-3.05-2.29-4-4c1.02-1.93,2.23-3.53,4.68-2.87c1.06,1.48-1.01,1.99-0.66,3.2
		c0.11,1.19,1.51,0.24,1.88,1.05C239.57,44.49,238.04,44.7,238,46z"/>
	<path class="st18" d="M129,287c0.16-0.62-0.41-0.82-0.86-1.42c0.45-1.1,2.4-1.42,2.47-1.87c0.28-1.86,1.93-1.95,2.94-2.6
		c1.08-0.7,2.06,1.37,3.46,0.89c-0.17,1.07-0.96,1.57-1.84,2C133.11,285,131.05,286,129,287z"/>
	<path class="st20" d="M381,594c-0.61-0.12-1.75,0.3-1.75-0.32c0.02-2.47-2.15-1.22-2.91-1.84c0.79-0.89,1.6-1.8,2.58-2.9
		c0.93-0.22,1.56,1.03,2.62,1.34c0.67,0.2,1.84,0.38,2.41,1.18c-0.25,0.57-1.11,0.74-0.96,1.55C382.91,594.5,381.76,593.85,381,594z
		"/>
	<path class="st18" d="M295,71c0.97,1.54,1.92,3.19-0.09,4.52c-1.38,0.91-0.43,2.48-1.36,3.46c-0.74-1.54-1.28-3.31-3.54-2.98
		C291.25,73.92,292.92,72.25,295,71z"/>
	<path class="st4" d="M334,71c-0.67-0.33-1.33-0.67-2-1c-1.64-0.42-1.7-2.13-1.85-3.14c-0.16-1.16-1.07-1.82-1.15-2.86
		c0.62,0.16,0.82-0.41,1.49-0.91c1.02,2.2,3.85,2.78,4.26,5.57C334.14,69.12,333.84,69.97,334,71z"/>
	<path class="st7" d="M122,291c-1.49-1.94-3.1-0.92-4.81-0.1c-0.08-0.53-0.15-0.98-0.26-1.76c3.35-0.16,6.58-0.64,8.85-3.32
		c0.89,0.47,1.56,0.82,2.23,1.18c-0.18,1.07-0.97,1.58-1.86,2C124.76,289.66,123.38,290.33,122,291z"/>
	<path class="st22" d="M496,287c1.1-0.54,2.21-1.08,3.53-1.72c1.26,0.14,2.49,2.29,4.32,0.72c1.52,0.91,3.19,1.2,5.02,1.28
		c-2.07,1.01-4.42,0.55-6.41,1.67c-0.8,0.45-1.55-0.08-1.49-1.23c0.01-0.21-0.34-0.45-0.52-0.67c-0.08,2.22-2.42-1.39-2.45,0.95
		C497.24,287.85,496.09,288.5,496,287z"/>
	<path class="st7" d="M202,601c-2.04,0.85-4.03,0.56-6.12,0.06c-1.24-0.3-0.52-1.43-1.16-1.8c-0.51-0.3-1.14-0.42-1.7-0.61
		c0.25-1.15,2.18-0.04,1.98-1.65c0.33,0,0.78-0.14,0.98,0.02C197.84,598.58,200.28,599.25,202,601z"/>
	<path class="st4" d="M342.02,70.83c-0.1,1.72-2.01,0.6-2.02,1.97c-0.3,1.71,2.89,1.89,1.57,4.3c-1.84-1.97-4.03-3.45-4.59-6.3
		c0.46-1.41,2.5-0.34,2.57-1.85C341.26,69.19,341.6,70.25,342.02,70.83z"/>
	<path class="st9" d="M270.43,147.12c-2.16-0.36-0.54-2.65-2.72-2.67c3.44-1.52,6.65-2.71,10.15-3.19
		C274.77,142.52,272.52,144.78,270.43,147.12z"/>
	<path class="st8" d="M149,54c-1.72,0.37-3.63-0.79-5.21,0.7c-0.62,0.58-0.71-0.29-1.05-0.47c-1.88-0.98-1.54,0.85-2.07,1.6
		c-0.99-0.25-0.59-3.34-2.81-1.29c-0.83,0.77-1.74-1.15-2.87-0.54c-0.28-0.11-0.56-0.22-0.87-0.35c0.14-0.22,0.27-0.62,0.41-0.62
		c4.4-0.03,8.81-0.03,13.21-0.03C148.43,53,149.07,53.06,149,54z"/>
	<path class="st23" d="M250,251c-0.33,0-0.67,0-1,0c0.1-1.33-1.13-0.77-1.3-0.91c1.1-1.1,2.27-2.27,3.98-3.98
		c0.36,0.07,1.65,1.33,3.32,0.88c0.03,0.69-0.31,1.03-1,1C253.45,250.04,251.74,250.55,250,251z"/>
	<path class="st7" d="M108,299c0.11-1.37-1.18-0.74-1.7-1.21c0.03-0.83,0.62-1.68-0.15-2.51c1.23-0.75,3.14,0.58,3.59-1.48
		c1.3,0.6,2.04,1.15,2.27,2.2C111.49,298.1,109.3,297.95,108,299z"/>
	<path class="st23" d="M206,603c-0.67-0.33-1.33-0.67-2-1c0.15-0.71-0.48-1.91,0.78-1.95c1.48-0.05,1.58-1.63,2.82-1.84
		c1.28,1.81,3.61,0.07,5.42,1.2c-1.52,1.36-3.5-0.13-4.92,0.98c0.19,1.13,1.54,0.19,1.85,1.07C209.06,603.04,206.62,600.7,206,603z"
		/>
	<path class="st16" d="M442,651c1.33-1,2.67-2,4-3c0.59,0.83,0.47,3.04,2.48,1.18c0.22-0.2,1.48,0.73,2.64,1.33
		c-1.1,0.44-2.57,1.36-2.83,1.09c-1.3-1.32-1.66,0.8-2.84,0.56C444.21,651.9,443.11,651.52,442,651z"/>
	<path class="st8" d="M397,586c-1.65-1.02-2.78-2.8-5.14-3.4c1.2-0.63,2.19-1.14,3.22-1.68c1.26,1.13,3.44,0.99,3.92,3.08
		C398.76,585.09,398.09,585.76,397,586z"/>
	<path class="st24" d="M499,559c-0.18,1.07-0.97,1.58-1.86,2c-1.39,0.65-2.76,1.33-4.14,2c-0.35-0.67-0.71-1.35-1.13-2.14
		c1.18-1.55,3.26-1.55,4.64-2.77C497.45,557.26,497.99,559.12,499,559z"/>
	<path class="st4" d="M488,65.5c1.3-1.38,2.93-2.51,3.48-4.48c0.86,0.57,0.45,1.45,0.51,2.2c0.1,1.26,1.43,0.42,1.85,1.09
		c-0.33,0.79-2.13,3.53-2.42,3.66c-0.55-0.87,2.22-3-0.95-2.97c-1.04,1.2,0.05,2.66-0.92,4.01C488.33,68.12,489.86,65.92,488,65.5z"
		/>
	<path class="st25" d="M181,648c1.09,0.24,1.76,0.91,2,2c-0.48,2.09-2.66,1.95-3.87,3.04c-1.03-0.48-2-0.94-3.14-1.47
		C177.92,650.64,179.5,649.37,181,648z"/>
	<path class="st26" d="M167,640c1.22-0.2,1.64-1.45,2.68-2.05c1.85-0.01,2.21,2.74,4.39,2.23c-0.61,1.24-1.9,1.61-2.07,2.82
		C170.41,641.87,168.23,641.72,167,640z"/>
	<path class="st26" d="M548,257c-0.96-0.07-0.73,0.99-1.05,1.19c-1.04,0.67-1.84,2.44-3.67,0.9c-0.65-0.54-2.13-0.09-3.57-0.09
		c1.37-1.81,3.15-0.27,4.25-1.46c-0.31-0.34-0.61-0.68-0.92-1.03c0.25-1.01,2.15,0.09,1.96-1.51C545.76,256.03,547.69,255.3,548,257
		z"/>
	<path class="st27" d="M305,188c-0.13-0.61,0.29-1.3-0.33-1.84c-1.73-1.5,0.07-2.16,0.85-3.21c1.69,0.16,2.89,1.57,4.48,2.05
		C308.77,186.72,306.59,186.87,305,188z"/>
	<path class="st23" d="M154,88c1.72,1.23,1.87,3.41,3,5c-1.6-0.19-0.51,1.71-1.52,1.97c-0.16-2.18-3.04-1.92-3.48-3.87
		C151.98,89.63,153.94,89.42,154,88z"/>
	<path class="st28" d="M453,123c-0.74-1.88-2.63-2.76-3.82-4.45c-0.03-0.87,0.79-0.39,1.25-0.56c0.57-0.22,0.75-1.09,1.57-1.03
		c1.73,0.27,0.86,3.19,3,3.04C453.97,120.76,454.7,122.69,453,123z"/>
	<path class="st4" d="M41.48,276.98c-0.59-3.58-0.59-3.58,3.42-8.29c-0.11,1.91,0.61,3.28,1.23,4.52c-0.92,1.46-2.66-2.02-3.14,0.79
		C40.91,274.19,42.84,276.42,41.48,276.98z"/>
	<path class="st13" d="M418.97,250.49c1.59-1.37,4,0.57,5.41-1.37c1.47,0.76,2.94,1.52,4.57,2.37c-1.02,0.53-2.02,1.05-2.99,1.56
		C423.72,251.3,423.72,251.3,418.97,250.49z"/>
	<path class="st29" d="M393,678c-1.46-0.9,0.5-2.67-0.91-3.59c0.63-0.45,0.92-1.35,1.67-1.42c1.61,0.04,1.84,1.92,3.24,2.01
		C396.49,677.1,394.3,676.95,393,678z"/>
	<path class="st4" d="M251.06,71.14c1.08,0.14,1.59,1.41,2.63,0.67c1.21-1.17-0.31-1.61-0.63-2.37c1.74-1.42,1.98,0.76,3.35,1.02
		c-1.05,1.57-1.51,3.01-1.87,4.66C254.38,72.92,250.62,73.95,251.06,71.14z"/>
	<path class="st4" d="M194.55,657.03c0.42,0.86,0.87,1.76,1.53,3.11c-3.17-0.61-5.95-1.44-9.22-1.05c1.36-1.86,2.89-0.67,4.07-1.1
		C192.09,657.56,193.08,656.53,194.55,657.03z"/>
	<path class="st14" d="M148,78c0.69-0.03,1.03,0.31,1,1c0.86,0.47,1.85,0.81,2,2c0,0.33,0,0.67,0,1c-1.84,0.85-2.52,0.61-5.01-1.77
		C146.06,78.95,146.86,78.32,148,78z"/>
	<path class="st26" d="M275,129c-0.66-1.85-2.94-1.22-3.94-2.56c0.95-0.48,1.9-0.96,2.88-1.46c1.34,0.67,2.7,1.34,4.06,2.02
		C277.69,128.7,275.76,127.97,275,129z"/>
	<path class="st14" d="M149.92,213.09c-1.76,1.57-4.07,1.98-5.39,3.95c-1.41-2.1-3.79-0.3-6.46-2.03
		C142.9,215.7,146.26,213.63,149.92,213.09z"/>
	<path class="st13" d="M80,592c2.3,0.89,4.22,2.34,6,4c-0.96-0.24-1.06,1.3-2.62,0.78C82.6,595.36,79.83,594.84,80,592z"/>
	<path class="st23" d="M262,153c-0.31,1.7-2.24,0.97-3,2c-0.19-1.2-1.42-1.6-1.95-2.55c1.23-0.62,0.77-1.51-0.41-2.37
		C259.77,149.79,260.05,152.68,262,153z"/>
	<path class="st19" d="M295.97,15.54c-1.79,0.85-3.48,2.14-5.65,1.29c0.21-2.42,1.11-3.35,2.93-2.79
		C294.22,14.34,295.07,15.02,295.97,15.54z"/>
	<path class="st7" d="M182,65c-1.03-0.17-1.87,0.16-2.53,0.97c-0.23-1.57-1.46-2.41-2.43-3.43c0.24-1.04,2.16,0.07,1.96-1.54
		C181.1,61.51,180.95,63.7,182,65z"/>
	<path class="st19" d="M107.82,610.71c0.98,0.25,1.42,0.36,1.87,0.48c0.09,0.12,0.27,0.26,0.25,0.34c-0.04,0.14-0.26,0.36-0.32,0.34
		c-1.34-0.5-2.18,2.4-3.77,0.53c-0.35-0.41-1.1-0.49-1.76-0.92c2.1,0.35,2.39-3.16,5.05-2.19
		C108.65,609.82,108.33,610.16,107.82,610.71z"/>
	<path class="st16" d="M248.21,226.41c-0.62,0.5-1.13,0.9-1.78,1.42c-0.03,0-3.46-2.72-3.41-2.97c0.05-0.28,0.28-0.54,0.43-0.8
		c0.9,1.68,1.75-0.22,2.61-0.03C247.06,224.24,247.65,224.97,248.21,226.41z"/>
	<path class="st4" d="M442,90c-0.04-0.95,0.3-2.05-0.9-2.3c1.34-3.48,3.07-0.49,5.08-0.43C444.78,88.55,444.16,90.33,442,90z"/>
	<path class="st16" d="M363,136c1.09,0.24,1.76,0.91,2,2c0.02,1.21-1.32,1.2-1.46,2.25c-1.42-0.69-2.48-1.21-3.52-1.72
		C360.39,136.93,362.7,137.67,363,136z"/>
	<path class="st13" d="M279.38,76.88c0.64,0.64,1.12,1.12,1.59,1.59c-2.14,3.36-4.54-0.81-7.33,1.14c1-2.2,2.15-1.62,2.85-1.54
		C277.66,78.21,278.09,76.99,279.38,76.88z"/>
	<path class="st7" d="M442,592c0,0.79,0,1.58,0,2.37c-3.1,1.62-3.1,1.62-5,0.63C438.23,593.28,440.41,593.13,442,592z"/>
	<path class="st15" d="M140,536c0.12-0.6-0.32-1.34,0.32-1.8c0.58-0.41,1.18-0.29,1.65,0.27c0.88,1.06,2.46,1.71,2.03,3.52
		C142.29,538.08,141.01,537.31,140,536z"/>
	<path class="st18" d="M456,264c0.11-0.28,0.31-0.8,0.32-0.8c1.92,0.69,3.83,1.42,5.72,2.13c-0.36,1.13-2.2,0.06-2.04,1.66
		C458.7,265.95,456.51,266.1,456,264z"/>
	<path class="st13" d="M74,589c0.76,1.03,2.69,0.3,3,2c-0.74,2.05-2.09,2.52-4.18,1.52c0.84-0.37,1.51-0.67,2.32-1.02
		c-0.8-0.35-1.47-0.65-2.14-0.94C73.31,589.99,74.13,589.81,74,589z"/>
	<path class="st13" d="M552,256.5c0.47-0.47,0.94-0.94,1.43-1.43c1.44-0.46,2.09,1.31,3.66,1.15c-0.43,0.51-0.66,0.88-0.97,1.15
		C554.37,258.86,553.15,257.81,552,256.5z"/>
	<path class="st8" d="M422,572c0-0.61,0-1.22,0-1.85c-1.67,0.11-1.88,2.61-3.74,1.62c2.68-3.24,2.68-3.24,5.74-1.78
		C423.76,571.09,423.09,571.76,422,572z"/>
	<path class="st4" d="M187.5,152.16c0.54,1.57,2.25,2.83,1.4,4.57c-1.7,0.77-2.08-0.67-2.9-1.25
		C185.8,154.1,187.37,153.45,187.5,152.16z"/>
	<path class="st7" d="M491,569c-1.27,0-2.53,0-4.9,0c2.12-1.31,4.09-0.67,4.72-2.34c0.3-0.8,0.42-1.59-0.82-1.66
		c0.09-1.5,1.24-0.85,2-1C491.97,565.73,492.31,567.53,491,569z"/>
	<path class="st30" d="M405,95c-1.25,0.06-2.64-0.41-3.52,0.98c-0.47-0.47-0.93-0.93-1.4-1.4c0.38-1.05,1.84-1.31,1.92-2.58
		C403.41,92.59,404.41,93.59,405,95z"/>
	<path class="st9" d="M443.8,589.2c-1.96-1.76-3.57-3.28-3.87-5.93C441.84,584.66,443.39,586.97,443.8,589.2z"/>
	<path class="st14" d="M160.22,297.35c-0.99,0.69-1.38,1.59-2.59,1.75c-0.79,0.1-1.45,1.21-2.17,1.87
		c-0.83-0.63-0.32-1.54-0.56-2.77C156.77,298.71,158,296.48,160.22,297.35z"/>
	<path class="st23" d="M492.82,290.93c2.06-2.13,4.02-1.16,6.39-0.53c-1.28,0.62-2.25,1.36-3.31,1.53
		C494.82,292.1,494.45,290.11,492.82,290.93z"/>
	<path class="st20" d="M405,66c0,0.33,0,0.67,0,1c-2.67,0-5.33,0-8,0c0-0.48,0-0.96,0-1.9c1.25,0.36,2.34,1.17,3.67,0.95
		C402.08,65.82,403.55,66,405,66z"/>
	<path class="st14" d="M252.74,76.75c-1.35-1.63-3.86-2.14-5.21-4.92C250.34,73.07,252.51,73.82,252.74,76.75z"/>
	<path class="st31" d="M103,243c-0.11,1.36,1.16,0.75,2.04,1.48c-1.74,0.92-3.15,2.15-5.04,0.52C100.31,243.3,102.24,244.03,103,243
		z"/>
	<path class="st14" d="M463.71,296.62c2.18-1.03,4-1.9,6.53-3.1C467.81,296.34,466.81,296.79,463.71,296.62z"/>
	<path class="st4" d="M242,415c0.38-0.98-0.93-2.53,1-3c1.33,1.76,1.14,3.73,0.78,6.02C242.24,417.43,243.97,415,242,415z"/>
	<path class="st4" d="M239,421c-0.08-1.71,0.69-2.99,2-4C242.5,419.73,242.18,420.37,239,421z"/>
	<path class="st4" d="M236.15,436.8c0-1.54,0-3.07,0-4.63c1.21,0,0.75,0.81,0.84,1.3c0.08,0.44,0.12,0.9,0.19,1.46
		c0.59-0.31,1.04-0.54,1.5-0.78C240.09,437.05,236.33,435.24,236.15,436.8z"/>
	<path class="st20" d="M206,471c0.81-0.16,0.97,0.75,1.65,0.97c0.2-0.56,0.4-1.14,0.6-1.72c0.23-0.26,0.5-0.2,0.7,0.21
		c0.82,1.75-1.44,2.86-0.95,4.54C206.69,473.99,205.92,472.71,206,471z"/>
	<path class="st17" d="M122.51,552c2.01-0.25,2.32,2.63,4.88,2.18c-2.38,1.77-3.75-0.01-5.22-0.59
		C121.71,553.4,121.93,552.45,122.51,552z"/>
	<path class="st23" d="M561,584c0.24-1.09,0.91-1.76,2-2c-0.16,1.6,1.67,0.53,2.04,1.66c-1.63,0.04-2.5,1.39-3.54,2.33
		C560.73,585.28,561.11,584.6,561,584z"/>
	<path class="st19" d="M281.89,130.33c-0.8,0.88-1.9,0.42-2.09,1.5c-0.93-0.86-1.8-1.67-2.66-2.47
		C279.15,127.85,280.22,130.52,281.89,130.33z"/>
	<path class="st7" d="M447,589c-0.16,1.03,0.15,1.88,0.98,2.52c-0.47,0.47-0.93,0.93-1.4,1.4c-1.04-0.4-1.31-1.83-2.58-1.92
		C444.31,589.3,446.24,590.03,447,589z"/>
	<path class="st32" d="M326,657c1.16,1.83,3.18,1.96,5.04,2.47c-2.38,0.85-4.46,0.67-6.04-1.47C324.97,657.31,325.31,656.97,326,657
		z"/>
	<path class="st16" d="M341.43,49.05c1.26-0.35,2.05,0.6,2.3,1.34c0.17,0.52-0.97,1.39,0.18,2.11c0.06,0.04-0.67,0.69-1.08,0.47
		c-1-0.55-2.41-1.03-0.94-2.58C342.03,50.24,340.64,49.83,341.43,49.05z"/>
	<path class="st14" d="M375.59,689.38c3.03-0.96,4.67,0.56,7.15,2.75C379.56,691.82,377.96,690.19,375.59,689.38z"/>
	<path class="st8" d="M276,701c1.81-1.62,3.37-0.4,4.95,0.45c-0.21,1.07-2.16-0.06-1.95,1.55C278.24,701.97,276.31,702.7,276,701z"
		/>
	<path class="st14" d="M335.07,715.77c1.44-2.94,3.82-1.24,5.74-1.58c-0.73,1.15-1.84,0.79-2.8,0.78
		C336.98,714.95,336.72,716.63,335.07,715.77z"/>
	<path class="st27" d="M231,174c-1.27,0.49-1.94-0.86-3-1c0.31-1.7,2.24-0.97,3-2C231.86,172.5,231.86,172.5,231,174z"/>
	<path class="st13" d="M400.57,609.92c1.83-1.58,2.7-3.87,6.17-2.15C403.86,607.37,403.54,610.19,400.57,609.92z"/>
	<path class="st15" d="M368,633c0.44,2.1-1.48,2.74-2.51,3.9c-0.14,0.16-0.68-1.05-1.49-0.9C365.33,635,366.67,634,368,633z"/>
	<path class="st16" d="M279.68,205.98c0.45,1.9-0.52,2.45-1.44,3.02c-1.25,0.21-1.41-1.12-2.34-1.39
		C277.01,206.35,278.92,207.91,279.68,205.98z"/>
	<path class="st26" d="M147,75c2.07-0.21,0.13-2.42,1.52-2.93c0.13,1.27,1.6,2.12,1.5,3.39c-0.73,0.84-1.42,0.43-2.03,0.55
		C147.31,76.03,146.97,75.69,147,75z"/>
	<path class="st17" d="M378.01,623.69c1.44-0.4,2.12-1.88,3.48-1.69c0.89,0.7-0.11,0.93-0.33,1.35c-0.28,0.52,0.02,1.28-0.67,1.63
		C379.82,624.37,379.34,623.39,378.01,623.69z"/>
	<path class="st8" d="M154,56c-1.97,0.09-3.83-0.09-5-2C150.97,53.91,152.83,54.09,154,56z"/>
	<path class="st11" d="M177,557c0.76-0.15,1.91,0.5,2-1c1.87,0.62,0.81,1.84,0.72,2.92C178.07,559.18,177.41,558.26,177,557z"/>
	<path class="st16" d="M494.13,540.49c-2.31,1.33-3.49-0.44-5.27-0.99C491.18,538.18,492.36,539.94,494.13,540.49z"/>
	<path class="st19" d="M297,18c0.06,0.89-0.51,1-1.2,1c-1.27,0-2.54,0-3.8,0C293.73,17.58,295.52,17.22,297,18z"/>
	<path class="st17" d="M374,599c1.01-1.31,2.29-2.08,4-2c-0.27,1.44-1.74,1.88-2.43,2.94C374.97,599.74,374.81,598.84,374,599z"/>
	<path class="st25" d="M48.14,579.59c2.65-0.95,3.94-0.68,4.82,1.32C51.23,581.29,50.39,579.77,48.14,579.59z"/>
	<path class="st23" d="M169.08,125.61c0-1.39,0-1.83,0-2.22c0.95-0.59,1.83-0.53,2.81-0.05c0.02,0.39,0.05,0.83,0.08,1.26
		c-0.91,0.72-0.94-0.47-1.54-0.56C170.17,124.33,169.86,124.69,169.08,125.61z"/>
	<path class="st4" d="M236,429c0.38-0.98-0.93-2.53,1-3c-0.13,1.52,1.56,0.57,1.92,1.51C237.97,427.99,236.99,428.5,236,429z"/>
	<path class="st19" d="M143.79,73.71c-0.77-0.9-3.26-0.01-2.73-2.32C143.76,72.35,143.81,72.39,143.79,73.71z"/>
	<path class="st19" d="M292,19c-0.47,1.93-2.02,0.62-3,1c0.12-0.78-0.65-0.98-0.99-1.52C289.58,16.8,290.53,20.1,292,19z"/>
	<path class="st18" d="M290,76c-0.21,2.24-0.76,2.79-3,3C287.59,77.59,288.59,76.59,290,76z"/>
	<path class="st17" d="M73,259c-0.39,1.58-1.45,2.16-3,2c0.67-1,1.33-2,2-3C72.69,257.97,73.03,258.31,73,259z"/>
	<path class="st33" d="M449,129c0.43-0.81-1.63-1.03-0.33-2.33c1.3-1.3,1.52,0.76,2.33,0.33C450.76,128.09,450.09,128.76,449,129z"
		/>
	<path class="st17" d="M340,711.53c-1.42-0.09-2,1.98-3.65,1.35C337.67,711.15,337.67,711.15,340,711.53z"/>
	<path class="st17" d="M69.12,258.67c-0.82-2.61,2.41-0.94,2.42-2.66c0.05,0.81,1.71,2.2-0.53,1.93
		C70.13,257.84,70.05,259.39,69.12,258.67z"/>
	<path class="st13" d="M196.49,456.99c1.18,0.97-0.37,2.93,1.71,3.5c-1.13,0.68-2.03,0.85-2.13-0.27
		C195.96,459.19,195.52,457.97,196.49,456.99z"/>
	<path class="st10" d="M237.83,418.51c-0.93,0.79-3.01,0.81-2.78,3.52c0.61-0.36,1.02-0.59,1.4-0.82c0.5,1.59,0.5,1.59-2.25,1.82
		c0.12-2.39-0.71-4.52-2.43-6.13c1.06-1.28,1.9-1.5,2.2,0.03c0.23,1.19,0.89,1.31,1.66,0.89c0.66-0.37,0.37-1,0.08-1.68
		c-0.46-1.07,0.23-2.12,1.79-3.19c0.69,1.11-0.82,1.71-0.6,2.85C237.08,416.82,238.51,417.17,237.83,418.51z"/>
	<path class="st26" d="M250,251c1.33-1,2.67-2,4-3c0.59,0.83,0.47,3.04,2.48,1.18c0.22-0.2,1.48,0.73,2.74,1.38
		c-1.87,0.22-2.69,1.45-3.72,2.43C254.11,251.13,251.44,252.75,250,251z"/>
	<path class="st20" d="M202.25,457.27c1.56-0.99,0.21-2.77,1-4.02c1.07-0.49,2.2-0.21,3.54-0.19c0,1.55,0,3.11,0,5.35
		c-1.2-1.61-0.31-3.96-2.45-4.23c-1.69,1.99,2.01,3.73,0.19,5.96C203.76,459.18,203.07,458.3,202.25,457.27z"/>
	<path class="st22" d="M418.77,610.84c-2.16,0.38-4.32,0.76-6.75,1.19c0.39-1.32,1.66-1.84,1.08-2.98
		C415.49,608.74,417.04,610.17,418.77,610.84z"/>
	<path class="st20" d="M494.79,564.96c0,1.54,0,2.98,0,4.55c-1.14,0.02-1.8,1.92-3.34,1.42c-0.76-0.61-0.33-1.33-0.45-1.94
		c1.36,0.35,2.18-0.47,2.88-1.41C494.42,566.88,493.4,565.66,494.79,564.96z"/>
	<path class="st18" d="M490.74,615.41c1.73-0.87,3.7,0.14,5.15-1.34c0.56-0.57,1.25,0.73,1.94,1.22c-0.02,0.89-0.95,1.1-1.33,1.71
		c-0.42-0.33-0.8-0.87-1.27-0.96C493.83,615.76,492.32,616.4,490.74,615.41z"/>
	<path class="st28" d="M429.62,196.12c-0.59-0.59-1.06-1.07-1.6-1.6c0.5-0.58,1-1.16,1.48-1.71c1.62,0.77,2.95,1.45,4.54,1.76
		C432.31,194.66,431.04,195.73,429.62,196.12z"/>
	<path class="st7" d="M189,426c-1.91-1.17-2.09-3.03-2-5c1.42,0.55,2.22,1.73,2.87,2.51C190.27,424.91,188.78,425.04,189,426z"/>
	<path class="st32" d="M457.96,587.5c0.71-0.66,1.18-1.11,1.58-1.48c1.35-0.2,1.72,0.91,2.43,1.51
		C460.03,589.16,460.03,589.16,457.96,587.5z"/>
	<path class="st7" d="M449.5,638.13c3.08-0.36,4.21,2.12,6.36,2.01C453.41,641.11,453.41,641.11,449.5,638.13z"/>
	<path class="st7" d="M451.87,261.72c-1.78-3.4-1.78-3.4-4.74-4.09C451.28,256.54,451.65,256.78,451.87,261.72z"/>
	<path class="st15" d="M275.63,238.1c-0.67,2.86-0.67,2.86-5.36,2.52C272.67,239.87,274.63,239.81,275.63,238.1z"/>
	<path class="st27" d="M160.78,545.28c-0.98-0.98-1.34-1.34-1.75-1.75c0.43-0.45,0.85-0.91,1.32-1.41c0.87,0.46,1.58,1.2,2.78,1.11
		C162.36,544.49,160.6,543.33,160.78,545.28z"/>
	<path class="st15" d="M413,183.53c-1.42-0.09-2,1.98-3.65,1.35C410.67,183.15,410.67,183.15,413,183.53z"/>
	<path class="st15" d="M476.19,270.69c-0.01-0.11-0.06-0.31-0.02-0.33c1.02-0.5,2.08-0.9,2.79,0.37c0.14,0.25-0.16,1.08-0.44,1.19
		C477.34,272.41,476.89,271.26,476.19,270.69z"/>
	<path class="st32" d="M496.06,617.01c-0.73,1.82-1.95,2.47-4.45,1.49C493.48,618.11,494.33,616.67,496.06,617.01z"/>
	<path class="st26" d="M217.17,466.84c0-1.55,0-3.1,0-5.79C218.33,463.66,217.86,465.25,217.17,466.84z"/>
	<path class="st12" d="M242.28,171.47c0.65-2.33,2.91-2.89,4.25-4.42c1.07,0.83-0.15,2.09,0.82,2.8c0.59,0.43,0.96,1.13,0.56,1.66
		c-0.45,0.6-0.88,1.49-1.83,1.47C244.66,172.95,242.99,173.55,242.28,171.47z"/>
	<path class="st7" d="M96.01,542.49c0.69-0.69,1.04-1.04,1.47-1.46c0.51,1.13,0.96,2.29,2.04,2.99c-0.69,0.88,1.11,2.43-0.77,2.97
		c-0.87,0.25-0.63,0.95-0.8,1.53c-0.16,0.52-0.81,0.63-1.25,0.46c-1.2-0.46-0.03-0.82,0.07-1.27c0.18-0.87,0.62-1.87,1.17-2.11
		C98.38,543.89,96.62,543.54,96.01,542.49z"/>
	<path class="st20" d="M108.94,554.86c-1.08-0.14-1.59-1.41-2.63-0.67c-1.21,1.17,0.31,1.61,0.65,2.41
		c-1.67,1.16-2.16-0.43-3.13-1.42c0.81-1.22,1.27-2.66,1.63-4.31C105.62,553.08,109.38,552.05,108.94,554.86z"/>
	<path class="st20" d="M346.69,608.27c1.71-0.1,2.5-1.01,3.46-1.5c0.64,0.58,1.12,1.02,1.88,1.71c0,0-0.09,0.2-0.47,0.47
		C349.43,610.48,349.43,610.48,346.69,608.27z"/>
	<path class="st8" d="M78.09,258.39c1.52-0.17,2.88-0.97,4.29-1.57c0.57,0.63,1.01,1.12,1.49,1.64c-0.34,0.57-1.24,1.56-1.43,1.32
		C81.25,258.3,79.56,259.48,78.09,258.39z"/>
	<path class="st22" d="M109,553.11c-0.06-1.62-2.46-1.85-1.81-4.13c1.96,1.11,2.96,3.94,5.79,3.29
		C111.71,553.41,110.27,552.7,109,553.11z"/>
	<path class="st10" d="M240.18,215.33c2.06,1.89,2.97,3.32,3.66,5.34C241.31,218.71,241.31,218.71,240.18,215.33z"/>
	<path class="st31" d="M367.95,546.52c2.07-1.7,2.07-1.7,3.99-0.08C370.09,548.12,370.09,548.12,367.95,546.52z"/>
	<path class="st18" d="M403.15,575.38c1.78-0.64,3.9,0.34,5.24-1.85C407.54,576.07,407.54,576.07,403.15,575.38z"/>
	<path class="st27" d="M231.6,173.72c0.86,2.12-0.51,2.52-1.19,3.28c-1.27,0.26-1.62-0.93-2.39-1.46c0.58-0.86,1.46-0.48,2.21-0.51
		C230.95,174.99,230.87,174.07,231.6,173.72z"/>
	<path class="st15" d="M166.09,262.47c-0.97,0.68-2.08,0.58-2.61,1.48c-0.37-0.31-0.69-0.75-1.12-0.91
		c-0.43-0.16-0.98,0.03-1.3-0.49c0.42-1.02,1.98-0.19,2.29-1.4C164.15,261.53,164.95,261.92,166.09,262.47z"/>
	<path class="st7" d="M122.01,564.51c1.93-0.91,3.52-1.23,4.98-1.02C125.06,564.4,123.47,564.72,122.01,564.51z"/>
	<path class="st32" d="M332.17,618.54c1.41,0.24,1.98-2.33,3.74-1.21C335.06,618.94,333.87,619.42,332.17,618.54z"/>
	<path class="st26" d="M212.09,611c0-1.08,0-1.85,0-2.57c0.26-0.49,0.52-0.52,0.71-0.11c0.25,0.54,0.33,1.23,0.72,1.63
		c0.31,0.32,1.46-0.24,1.26,0.7c-0.16,0.74-1.14,0.23-1.74,0.36C212.88,611.03,212.71,611,212.09,611z"/>
	<path class="st20" d="M305,17c0-0.33,0-0.67,0-1c0.71-0.15,1.86,0.48,1.97-0.78c0.17-2.08,1.7-1.23,2.56-1.1
		c1,0.15,1.97,2.48,1.44,3.27c-0.64,0.94-1.55,1.7-2.34,2.53c-0.96-0.62-1.61-1.34-1.84-2.55C306.64,16.62,305.61,17.13,305,17z"/>
	<path class="st32" d="M458.4,101.77c0.37,1.53,1.17,2.29,2.43,2.57c-1.66,1.02,0.26,3.73-2.64,4.34c-0.4-0.13-1.06-0.72-1.17-1.67
		c-0.1-0.85,1.5-1.68,0.05-2.58C457.98,103.88,457.98,102.82,458.4,101.77z"/>
	<path class="st7" d="M326.75,50.25c-0.78-0.78-1.25-1.25-1.67-1.67c1.73-3.42,3.8,0.09,5.78-0.19
		C329.62,49.12,328.03,49.03,326.75,50.25z"/>
	<path class="st12" d="M307.17,103.16c2.87,0,5.73,0,8.61,0c0.18,0.9-0.7,0.98-0.98,1.66C312.44,103.16,309.66,104.57,307.17,103.16
		z"/>
	<path class="st22" d="M368.01,136.59c0.59-0.65,1.04-1.14,1.43-1.57c1.53-0.25,2.11,1.54,3.5,1.42
		C370.66,138.34,370.66,138.34,368.01,136.59z"/>
	<path class="st32" d="M331.73,117.11c-1.67-2.81-1.67-2.81-4.58-3.46c0.01-0.62,0.44-0.59,0.9-0.68c0.44-0.08,0.83-0.4,1.59-0.8
		C330.8,113.41,332.71,114.39,331.73,117.11z"/>
	<path class="st0" d="M451,87c-1.39-0.25-1.22-1-0.6-1.9c0.5-0.73,1.56-1.03,1.6-2.1c0.6,0.11,1.28-0.27,1.87,0.37
		C452.9,84.56,452.99,86.57,451,87z"/>
	<path class="st15" d="M387.62,149.99c-0.68-2.81-1.68-4.16-4.46-4.39C387.47,144.98,387.84,145.32,387.62,149.99z"/>
	<path class="st26" d="M151,81c-1.09-0.24-1.76-0.91-2-2c0.84,0.08,1.63-1.74,2.55,0.01C152.06,79.97,152.49,80.69,151,81z"/>
	<path class="st27" d="M286.18,30.97c0-1.64,0-3.18,0-4.77c0.92,0.6,2.63,0.78,0.86,2.34C286.46,29.04,287.7,30.38,286.18,30.97z"/>
	<path class="st12" d="M317.38,103.72c2.71,1.2,2.98,2.49,2.25,4.52C318.92,106.82,318.37,105.71,317.38,103.72z"/>
	<path class="st26" d="M172.34,84.86c1.38,1.25,2.56,2.37,1.11,4.22C173.63,87.57,171.4,87,172.34,84.86z"/>
	<path class="st22" d="M235.3,73.18c0.79,1.54,2.53,0.34,3.53,1.12C235.67,75.33,235.67,75.33,235.3,73.18z"/>
	<path class="st26" d="M171.66,89.91c-0.44,0-0.89,0-1.31,0c-0.72-1.3-0.12-2.51-0.56-4.41C171.67,86.89,170.14,89.06,171.66,89.91z
		"/>
	<path class="st32" d="M252.17,138.53c1.32-0.05,2.07-2.02,3.82-1.34C255.06,138.94,253.87,139.42,252.17,138.53z"/>
	<path class="st20" d="M393,66c0.49-1.27-0.86-1.94-1-3c1.6,0.17,0.52-1.7,1.52-1.99c1.46,1.26-0.8,3.58,1.51,4.44
		C394.3,66.29,393.6,65.88,393,66z"/>
	<path class="st20" d="M400.12,62.3c-1.58,2.09-3.3-1.05-4.79,0.57c-0.58-1.06-0.75-1.87,1.14-1.9
		C397.95,60.94,398.62,62.33,400.12,62.3z"/>
</g>
</svg>
